<?xml version="1.0" standalone="no"?><!DOCTYPE svg PUBLIC "-//W3C//DTD SVG 1.1//EN" "http://www.w3.org/Graphics/SVG/1.1/DTD/svg11.dtd"><svg t="1727964933407" class="icon" viewBox="0 0 4044 1024" version="1.1" xmlns="http://www.w3.org/2000/svg" p-id="19036" xmlns:xlink="http://www.w3.org/1999/xlink" width="789.84375" height="200"><path d="M2133.951284 30.672811v960.969059h-238.641212V30.672811h238.641212zM2728.194865 0c285.830151 0 516.044766 221.450955 516.044766 509.303489 0 288.863726-231.899934 514.696511-518.404213 514.696511s-518.404213-222.79921-518.404213-510.988808C2207.094141 225.158657 2442.364714 0 2728.194865 0z m-2.022383 789.403555c151.678736 0 262.909809-131.117841 262.909809-278.414747s-111.905201-277.066491-262.909809-277.066491c-151.678736 0-263.583937 129.769585-263.583937 277.066491s112.242265 278.414747 263.583937 278.414747zM3271.541804 701.092824l218.754444-51.907834c15.842001 115.612903 99.770902 157.071758 188.081632 157.071758 87.636603 0 119.65767-51.907834 119.65767-92.355497 0-32.695194-18.875576-64.716261-82.917709-77.524687l-133.477288-25.953918c-159.768269-30.672811-272.684661-131.117841-272.684661-285.493087 0-183.699803 167.520737-313.132324 356.613562-313.132324 243.697169 0 344.142199 152.352864 361.669519 279.763002l-214.709677 60.334431c-11.460171-78.535879-59.997367-135.499671-147.971034-135.499671-76.176432 0-112.579329 50.896643-112.579328 89.321922 0 32.021066 15.167874 68.761027 71.794601 79.884134l139.207373 26.628045c182.014483 35.054641 281.785385 146.285714 281.785386 290.886109 0 157.071758-135.499671 308.41343-367.736669 308.41343-243.023041 0.337064-373.466754-127.073074-405.487821-310.435813z" fill="#222222" p-id="19037"></path><path d="M256.84266 991.64187H0L424.026333 30.672811h257.516787l-424.70046 960.969059z" fill="#3B6BE3" p-id="19038"></path><path d="M1517.798552 500.539829L1836.660961 30.335747h-291.560237l-172.239631 284.481896L1205.003292 30.335747h-295.605004l322.907176 470.204082-208.642528 305.716919L681.54312 30.672811h-257.516787l425.711653 960.969059h322.233048l200.890059-304.368664 198.867676 304.368664h263.583937z" fill="#222222" p-id="19039"></path></svg>