<?xml version="1.0" standalone="no"?><!DOCTYPE svg PUBLIC "-//W3C//DTD SVG 1.1//EN" "http://www.w3.org/Graphics/SVG/1.1/DTD/svg11.dtd"><svg t="1727967785746" class="icon" viewBox="0 0 1024 1024" version="1.1" xmlns="http://www.w3.org/2000/svg" p-id="28768" xmlns:xlink="http://www.w3.org/1999/xlink" width="200" height="200"><path d="M512 832c160 0 305.450667-144.170667 288.768-176-16.768-32-96.768 80-288.768 80s-256-112-272-80S352 832 512 832z m176-512c26.581333 0 48 21.418667 48 48v64c0 26.581333-21.418667 48-48 48A47.914667 47.914667 0 0 1 640 432v-64c0-26.581333 21.418667-48 48-48z m-352 0C362.581333 320 384 341.418667 384 368v64c0 26.581333-21.418667 48-48 48a47.914667 47.914667 0 0 1-48-48v-64c0-26.581333 21.418667-48 48-48zM512 0C229.589333 0 0 229.589333 0 512s229.589333 512 512 512 512-229.589333 512-512S794.410667 0 512 0z m0 64c247.808 0 448 200.192 448 448S759.808 960 512 960 64 759.808 64 512 264.192 64 512 64z" fill="#1769AA" p-id="28769"></path></svg>