<?xml version="1.0" standalone="no"?><!DOCTYPE svg PUBLIC "-//W3C//DTD SVG 1.1//EN" "http://www.w3.org/Graphics/SVG/1.1/DTD/svg11.dtd"><svg t="1727964612804" class="icon" viewBox="0 0 1024 1024" version="1.1" xmlns="http://www.w3.org/2000/svg" p-id="17878" xmlns:xlink="http://www.w3.org/1999/xlink" width="200" height="200"><path d="M25.6 975.104c0-1.536 7.424-14.848 16.64-29.44 54.272-86.272 83.968-151.808 108.8-239.104 20.992-75.008 33.792-152.576 43.776-267.52 4.352-51.2 3.84-165.12-1.28-203.52-11.264-86.528-24.832-140.544-47.616-187.648-4.352-8.448-7.68-16.384-7.68-17.664 0-1.024 16.128-2.048 35.84-2.048h35.584l9.984 13.312c16.128 22.272 37.632 56.064 58.88 93.44 71.424 124.928 96.512 181.248 125.696 283.648 34.816 122.88 47.872 203.776 56.576 352 1.536 26.112 3.84 62.208 5.376 80.384 1.28 18.432 2.304 36.608 2.304 40.448v7.168l133.376-0.512 133.376-0.768 10.24-24.32c16.896-40.704 28.672-81.408 41.472-142.08 3.072-15.104 5.888-52.992 7.68-108.8l0.256-11.52 29.44 0.768c34.304 1.024 30.72-1.536 57.344 40.448 27.648 43.776 43.008 77.312 69.888 154.624 19.2 55.552 26.112 81.92 30.208 118.272 2.048 17.408 4.352 36.352 5.376 42.496l1.536 10.752H507.136c-346.112 0-481.536-0.768-481.536-2.816zM809.472 529.92c-13.568-2.048-37.376-14.336-46.592-24.32-10.24-10.752-22.528-35.072-25.344-49.664-5.888-29.696 4.352-60.672 27.136-82.432 14.848-14.592 27.904-21.248 48.64-25.6 38.144-7.936 80.384 13.824 98.56 50.688 7.68 15.616 8.448 19.2 8.192 40.704 0 21.248-1.024 25.344-8.448 40.448-18.432 37.376-57.856 56.832-102.144 50.176z" fill="#009687" p-id="17879"></path></svg>